<svg width="97" height="101" viewBox="0 0 97 101" fill="none" xmlns="http://www.w3.org/2000/svg">
<path d="M13.8769 34.7948C18.8944 30.952 25.3617 31.2388 28.864 35.8117C32.4149 40.4481 31.0065 46.7666 25.9891 50.6094C20.9716 54.4522 14.4726 54.1898 10.9216 49.5534C7.41933 44.9804 8.85943 38.6376 13.8769 34.7948ZM15.6038 37.0495C11.9835 39.8222 11.0131 44.3442 13.4939 47.5833C16.0233 50.886 20.642 51.1274 24.2622 48.3547C27.8507 45.6064 28.8529 41.0601 26.3234 37.7574C23.8427 34.5183 19.1922 34.3012 15.6038 37.0495ZM43.7489 2.54507L46.3847 0.526379L68.0066 28.7577L65.3708 30.7764L43.7489 2.54507ZM66.4331 84.7299L84.5977 70.818L86.2516 72.9774L68.087 86.8893L66.4331 84.7299ZM56.7775 72.1226L59.3815 70.1282L69.6452 83.5294L67.0411 85.5238L56.7775 72.1226Z" fill="black"/>
</svg>
