<svg width="63" height="83" viewBox="0 0 63 83" fill="none" xmlns="http://www.w3.org/2000/svg">
<path d="M11.2392 8.88H13.9592V13.28C13.9592 20.8 9.07922 25.8 2.31922 27.84L0.719219 25.24C6.87922 23.6 11.2392 19.24 11.2392 13.28V8.88ZM11.8392 8.88H14.5192V13.28C14.5192 19.24 18.9192 23.6 25.0392 25.24L23.4392 27.84C16.7192 25.8 11.8392 20.8 11.8392 13.28V8.88ZM1.71922 8.16H24.0792V10.84H1.71922V8.16ZM59.3239 0.519999H62.6439V36.08H59.3239V0.519999ZM50.8439 14.8H60.2439V17.6H50.8439V14.8ZM35.0016 62.96C41.3216 62.96 46.2816 67.12 46.2816 72.88C46.2816 78.72 41.3216 82.88 35.0016 82.88C28.6816 82.88 23.6816 78.72 23.6816 72.88C23.6816 67.12 28.6816 62.96 35.0016 62.96ZM35.0016 65.8C30.4416 65.8 26.9216 68.8 26.9216 72.88C26.9216 77.04 30.4416 80.04 35.0016 80.04C39.5216 80.04 43.0816 77.04 43.0816 72.88C43.0816 68.8 39.5216 65.8 35.0016 65.8Z" fill="black"/>
</svg>
